<svg width="260" height="260" viewBox="0 0 260 260" fill="none" xmlns="http://www.w3.org/2000/svg">
<rect width="260" height="260" fill="#0083FC"/>
<path d="M39.2346 169.536C38.5221 169.536 37.8808 169.283 37.3107 168.777C36.8119 168.199 36.5625 167.548 36.5625 166.825V96.3455C36.5625 95.5504 36.8119 94.8998 37.3107 94.3938C37.8808 93.8878 38.5221 93.6348 39.2346 93.6348H52.7022C53.486 93.6348 54.1273 93.8878 54.6261 94.3938C55.1249 94.8998 55.3743 95.5504 55.3743 96.3455V120.417L75.1481 95.695C76.0032 94.3215 77.3927 93.6348 79.3167 93.6348H94.7081C95.3495 93.6348 95.8839 93.8878 96.3114 94.3938C96.739 94.8275 96.9527 95.3335 96.9527 95.9118C96.9527 96.4178 96.8458 96.8515 96.6321 97.213L70.9796 129.959L98.556 165.958C98.841 166.247 98.9836 166.681 98.9836 167.259C98.9836 167.837 98.7698 168.38 98.3422 168.886C97.9147 169.319 97.3803 169.536 96.739 169.536H80.813C79.1029 169.536 77.6777 168.813 76.5376 167.368L55.3743 140.585V166.825C55.3743 167.621 55.1249 168.271 54.6261 168.777C54.1273 169.283 53.486 169.536 52.7022 169.536H39.2346Z" fill="white"/>
<path d="M104.765 178.644C104.123 178.644 103.553 178.391 103.054 177.885C102.627 177.452 102.413 176.946 102.413 176.367C102.413 176.223 102.52 175.861 102.734 175.283L138.861 86.9121C139.716 85.1772 140.999 84.3098 142.709 84.3098H152.329C152.97 84.3098 153.504 84.5628 153.932 85.0688C154.359 85.5025 154.573 86.0085 154.573 86.5868C154.573 86.9482 154.502 87.3097 154.359 87.6711L118.018 176.042C117.306 177.777 116.023 178.644 114.17 178.644H104.765Z" fill="white"/>
<path d="M192.391 170.62C182.201 170.62 174.22 168.127 168.448 163.139C162.748 158.079 159.719 150.778 159.363 141.236C159.292 139.284 159.256 136.103 159.256 131.694C159.256 127.212 159.292 123.959 159.363 121.935C159.719 112.538 162.819 105.309 168.662 100.249C174.505 95.1167 182.415 92.5505 192.391 92.5505C198.661 92.5505 204.29 93.6348 209.278 95.8034C214.266 97.8997 218.186 100.936 221.036 104.912C223.957 108.815 225.454 113.405 225.525 118.682V118.899C225.525 119.477 225.276 119.983 224.777 120.417C224.349 120.779 223.85 120.959 223.28 120.959H208.851C207.925 120.959 207.212 120.779 206.713 120.417C206.214 119.983 205.787 119.224 205.431 118.14C204.433 114.453 202.865 111.887 200.728 110.442C198.59 108.923 195.775 108.164 192.284 108.164C183.875 108.164 179.529 112.935 179.244 122.477C179.172 124.429 179.137 127.429 179.137 131.477C179.137 135.525 179.172 138.597 179.244 140.694C179.529 150.235 183.875 155.006 192.284 155.006C195.775 155.006 198.625 154.247 200.834 152.729C203.043 151.139 204.575 148.573 205.431 145.031C205.716 143.947 206.107 143.224 206.606 142.862C207.105 142.428 207.853 142.212 208.851 142.212H223.28C223.922 142.212 224.456 142.428 224.884 142.862C225.382 143.296 225.596 143.838 225.525 144.489C225.454 149.766 223.957 154.392 221.036 158.368C218.186 162.271 214.266 165.307 209.278 167.476C204.29 169.572 198.661 170.62 192.391 170.62Z" fill="white"/>
</svg>
